<?xml version="1.0" standalone="no"?>
<!DOCTYPE svg PUBLIC "-//W3C//DTD SVG 20010904//EN"
 "http://www.w3.org/TR/2001/REC-SVG-20010904/DTD/svg10.dtd">
<svg version="1.0" xmlns="http://www.w3.org/2000/svg"
 width="25.000000pt" height="19.000000pt" viewBox="0 0 25.000000 19.000000"
 preserveAspectRatio="xMidYMid meet">
<metadata>
Created by potrace 1.16, written by Peter Selinger 2001-2019
</metadata>
<g transform="translate(0.000000,19.000000) scale(0.003852,-0.004948)"
fill="#000000" stroke="none">
<path d="M3278 2422 l-1337 -2 -17 -53 c-15 -47 -15 -56 -1 -89 19 -46 19 -46
287 -52 435 -10 735 -85 1327 -332 312 -130 375 -155 516 -198 171 -53 262
-71 432 -86 188 -16 432 9 645 66 81 22 -106 -68 -218 -105 -92 -30 -274 -69
-377 -81 -130 -14 -477 -12 -640 5 -265 27 -626 96 -1135 215 -777 182 -1056
230 -1415 246 -478 21 -897 -109 -1160 -359 -71 -68 -75 -74 -75 -115 0 -56
25 -99 72 -123 69 -35 104 -22 219 85 256 237 650 339 1182 307 235 -15 237
-15 237 -51 0 -44 54 -247 89 -335 81 -202 185 -358 337 -504 126 -122 244
-205 399 -281 296 -146 614 -209 990 -197 168 6 313 22 430 48 466 104 843
305 1143 611 249 253 419 569 488 906 30 149 26 159 -52 125 -31 -14 -68 -17
-179 -18 -137 0 -143 1 -250 39 -121 42 -164 63 -305 144 -81 47 -254 156
-285 179 -5 5 -612 7 -1347 5z"/>
</g>
</svg>
